<svg xmlns="http://www.w3.org/2000/svg" version="1.0" width="360.000000pt" height="360.000000pt" viewBox="0 0 360.000000 360.000000" preserveAspectRatio="xMidYMid meet">

<g transform="translate(0.000000,360.000000) scale(0.100000,-0.100000)" fill="#197de3" stroke="none">
<path d="M1059 2877 c-75 -31 -120 -68 -163 -130 -58 -87 -67 -135 -64 -368 l3 -204 110 0 110 0 5 213 5 214 37 34 38 34 787 0 c606 0 794 -3 812 -13 13 -6 34 -25 45 -40 21 -28 21 -34 24 -796 3 -845 4 -827 -57 -868 l-34 -23 -781 0 c-600 0 -787 3 -805 13 -13 6 -34 25 -45 40 -19 26 -21 45 -26 235 l-5 207 -110 0 -110 0 0 -225 0 -225 29 -62 c33 -73 112 -152 183 -186 l48 -22 835 0 835 0 57 27 c115 54 185 148 208 280 8 43 10 307 8 833 l-3 770 -23 57 c-31 76 -105 156 -179 193 l-58 30 -830 2 -830 3 -56 -23z" fill="#197de3"/>
<path d="M1558 2188 l-3 -133 -498 -3 -497 -2 2 -248 3 -247 497 -3 497 -2 3 -135 3 -136 335 257 c184 141 336 259 338 263 2 6 -623 490 -664 514 -11 6 -14 -17 -16 -125z" fill="#197de3"/>
</g>
</svg>