<?xml version="1.0" standalone="no"?>
<!DOCTYPE svg PUBLIC "-//W3C//DTD SVG 20010904//EN"
 "http://www.w3.org/TR/2001/REC-SVG-20010904/DTD/svg10.dtd">
<svg version="1.0" xmlns="http://www.w3.org/2000/svg"
 width="180.000000pt" height="148.000000pt" viewBox="0 0 180.000000 148.000000"
 preserveAspectRatio="xMidYMid meet">

<g transform="translate(0.000000,148.000000) scale(0.100000,-0.100000)"
fill="#000000" stroke="none">
<path d="M20 1470 c0 -5 7 -24 15 -42 55 -124 285 -681 285 -692 0 -13 -71
-186 -236 -573 -35 -83 -64 -154 -64 -157 0 -3 48 -6 106 -6 l106 0 362 164
c459 209 886 402 1046 473 212 95 211 102 -13 203 -89 40 -443 201 -787 357
l-624 283 -98 0 c-56 0 -98 -4 -98 -10z m744 -326 c741 -336 800 -363 795
-367 -2 -1 -266 -1 -585 1 l-581 2 -83 198 c-45 108 -106 254 -136 325 -29 70
-50 127 -47 127 3 0 290 -129 637 -286z m791 -453 c-6 -5 -176 -84 -380 -176
-203 -92 -523 -237 -709 -321 -186 -85 -340 -153 -342 -152 -1 2 59 150 134
330 l137 328 585 0 c347 0 580 -4 575 -9z"/>
</g>
</svg>
